<svg width="32.000000" height="32.000000" viewBox="0 0 32 32" fill="none" xmlns="http://www.w3.org/2000/svg" xmlns:xlink="http://www.w3.org/1999/xlink">
	<desc>
			Created with Pixso.
	</desc>
	<g clip-path="url(#clip331_3257)">
		<path d="M23.063 3.16L16.4847 4.48715L30.5934 19.7493L31.9783 9.93997L23.063 3.16ZM18.6776 7.94925L15.9654 4.91992L11.8973 8.49744L14.4651 11.6422L18.6776 7.94925ZM18.9661 20.0955L22.6302 25.3175L30.0164 20.1532L25.3712 15.1043L18.9661 20.0955ZM8.2619 6.07394L3.70325 6.91061L14.1766 24.1635L22.0532 25.7503L13.4841 13.4598L8.2619 6.07394ZM5.05933 10.4593L3.29932 7.48764L0.904602 11.0074L2.54919 13.8348L5.05933 10.4593ZM5.57867 19.028L7.62714 22.6055L9.76221 20.384L7.59833 16.8354L5.57867 19.028ZM0.0101929 16.4026L2.98193 21.9997L7.16553 23.096L0.558411 11.5556L0.0101929 16.4026Z" fill-rule="evenodd" fill="#409EFF"/>
	</g>
	<defs>
		<clipPath id="clip331_3257">
			<rect width="32.000000" height="32.000000" fill="white"/>
		</clipPath>
	</defs>
</svg>
