{
    "asset" : {
        "generator" : "Khronos glTF Blender I/O v1.8.19",
        "version" : "2.0"
    },
    "scene" : 0,
    "scenes" : [
        {
            "name" : "Scene",
            "nodes" : [
                0
            ]
        }
    ],
    "nodes" : [
        {
            "mesh" : 0,
            "name" : "\u6218\u673a10",
            "scale" : [
                2.7211246490478516,
                2.7211246490478516,
                2.7211246490478516
            ]
        }
    ],
    "materials" : [
        {
            "doubleSided" : true,
            "name" : "Mat3d66-1119155-11-7333",
            "pbrMetallicRoughness" : {
                "baseColorTexture" : {
                    "index" : 0
                },
                "metallicFactor" : 0.27559053897857666,
                "roughnessFactor" : 0.751968502998352
            }
        }
    ],
    "meshes" : [
        {
            "name" : "Obj3d66-1119155-6-835",
            "primitives" : [
                {
                    "attributes" : {
                        "POSITION" : 0,
                        "NORMAL" : 1,
                        "TEXCOORD_0" : 2
                    },
                    "indices" : 3,
                    "material" : 0
                }
            ]
        }
    ],
    "textures" : [
        {
            "sampler" : 0,
            "source" : 0
        }
    ],
    "images" : [
        {
            "bufferView" : 4,
            "mimeType" : "image/png",
            "name" : "Image_0"
        }
    ],
    "accessors" : [
        {
            "bufferView" : 0,
            "componentType" : 5126,
            "count" : 18336,
            "max" : [
                1.1556044816970825,
                0.9011502265930176,
                1.5102055072784424
            ],
            "min" : [
                -1.1556044816970825,
                -8.032657206058502e-09,
                -1.5102055072784424
            ],
            "type" : "VEC3"
        },
        {
            "bufferView" : 1,
            "componentType" : 5126,
            "count" : 18336,
            "type" : "VEC3"
        },
        {
            "bufferView" : 2,
            "componentType" : 5126,
            "count" : 18336,
            "type" : "VEC2"
        },
        {
            "bufferView" : 3,
            "componentType" : 5123,
            "count" : 18336,
            "type" : "SCALAR"
        }
    ],
    "bufferViews" : [
        {
            "buffer" : 0,
            "byteLength" : 220032,
            "byteOffset" : 0
        },
        {
            "buffer" : 0,
            "byteLength" : 220032,
            "byteOffset" : 220032
        },
        {
            "buffer" : 0,
            "byteLength" : 146688,
            "byteOffset" : 440064
        },
        {
            "buffer" : 0,
            "byteLength" : 36672,
            "byteOffset" : 586752
        },
        {
            "buffer" : 0,
            "byteLength" : 792967,
            "byteOffset" : 623424
        }
    ],
    "samplers" : [
        {
            "magFilter" : 9729,
            "minFilter" : 9987
        }
    ],
    "buffers" : [
        {
            "byteLength" : 1416392,
            "uri" : "data:application/octet-stream;base64,"
        }
    ]
}
