{
    "asset" : {
        "generator" : "Khronos glTF Blender I/O v1.8.19",
        "version" : "2.0"
    },
    "scene" : 0,
    "scenes" : [
        {
            "name" : "Scene",
            "nodes" : [
                0
            ]
        }
    ],
    "nodes" : [
        {
            "mesh" : 0,
            "name" : "\u5766\u514b02"
        }
    ],
    "materials" : [
        {
            "doubleSided" : true,
            "name" : "Material #2158",
            "pbrMetallicRoughness" : {
                "baseColorTexture" : {
                    "index" : 0
                },
                "metallicFactor" : 0.24409449100494385,
                "roughnessFactor" : 0.7362204790115356
            }
        },
        {
            "doubleSided" : true,
            "name" : "Material #2159",
            "pbrMetallicRoughness" : {
                "baseColorTexture" : {
                    "index" : 1
                },
                "metallicFactor" : 0,
                "roughnessFactor" : 0.712598443031311
            }
        }
    ],
    "meshes" : [
        {
            "name" : "Obj3d66-1270365-2-83",
            "primitives" : [
                {
                    "attributes" : {
                        "POSITION" : 0,
                        "NORMAL" : 1,
                        "TEXCOORD_0" : 2,
                        "TEXCOORD_1" : 3,
                        "TEXCOORD_2" : 4,
                        "TEXCOORD_3" : 5,
                        "TEXCOORD_4" : 6,
                        "TEXCOORD_5" : 7,
                        "TEXCOORD_6" : 8,
                        "TEXCOORD_7" : 9,
                        "COLOR_0" : 10
                    },
                    "indices" : 11,
                    "material" : 0
                },
                {
                    "attributes" : {
                        "POSITION" : 12,
                        "NORMAL" : 13,
                        "TEXCOORD_0" : 14,
                        "TEXCOORD_1" : 15,
                        "TEXCOORD_2" : 16,
                        "TEXCOORD_3" : 17,
                        "TEXCOORD_4" : 18,
                        "TEXCOORD_5" : 19,
                        "TEXCOORD_6" : 20,
                        "TEXCOORD_7" : 21,
                        "COLOR_0" : 22
                    },
                    "indices" : 23,
                    "material" : 1
                }
            ]
        }
    ],
    "textures" : [
        {
            "sampler" : 0,
            "source" : 0
        },
        {
            "sampler" : 0,
            "source" : 1
        }
    ],
    "images" : [
        {
            "bufferView" : 12,
            "mimeType" : "image/jpeg",
            "name" : "Image_0"
        },
        {
            "bufferView" : 25,
            "mimeType" : "image/jpeg",
            "name" : "Image_1"
        }
    ],
    "accessors" : [
        {
            "bufferView" : 0,
            "componentType" : 5126,
            "count" : 8034,
            "max" : [
                1.3332445621490479,
                1.9870778322219849,
                2.920668601989746
            ],
            "min" : [
                -1.3332445621490479,
                0.03516951948404312,
                -2.920668601989746
            ],
            "type" : "VEC3"
        },
        {
            "bufferView" : 1,
            "componentType" : 5126,
            "count" : 8034,
            "type" : "VEC3"
        },
        {
            "bufferView" : 2,
            "componentType" : 5126,
            "count" : 8034,
            "type" : "VEC2"
        },
        {
            "bufferView" : 3,
            "componentType" : 5126,
            "count" : 8034,
            "type" : "VEC2"
        },
        {
            "bufferView" : 4,
            "componentType" : 5126,
            "count" : 8034,
            "type" : "VEC2"
        },
        {
            "bufferView" : 5,
            "componentType" : 5126,
            "count" : 8034,
            "type" : "VEC2"
        },
        {
            "bufferView" : 6,
            "componentType" : 5126,
            "count" : 8034,
            "type" : "VEC2"
        },
        {
            "bufferView" : 7,
            "componentType" : 5126,
            "count" : 8034,
            "type" : "VEC2"
        },
        {
            "bufferView" : 8,
            "componentType" : 5126,
            "count" : 8034,
            "type" : "VEC2"
        },
        {
            "bufferView" : 9,
            "componentType" : 5126,
            "count" : 8034,
            "type" : "VEC2"
        },
        {
            "bufferView" : 10,
            "componentType" : 5123,
            "count" : 8034,
            "normalized" : true,
            "type" : "VEC4"
        },
        {
            "bufferView" : 11,
            "componentType" : 5123,
            "count" : 16119,
            "type" : "SCALAR"
        },
        {
            "bufferView" : 13,
            "componentType" : 5126,
            "count" : 696,
            "max" : [
                1.2996735572814941,
                0.858456015586853,
                2.0494236946105957
            ],
            "min" : [
                -1.310863971710205,
                0,
                -2.858322858810425
            ],
            "type" : "VEC3"
        },
        {
            "bufferView" : 14,
            "componentType" : 5126,
            "count" : 696,
            "type" : "VEC3"
        },
        {
            "bufferView" : 15,
            "componentType" : 5126,
            "count" : 696,
            "type" : "VEC2"
        },
        {
            "bufferView" : 16,
            "componentType" : 5126,
            "count" : 696,
            "type" : "VEC2"
        },
        {
            "bufferView" : 17,
            "componentType" : 5126,
            "count" : 696,
            "type" : "VEC2"
        },
        {
            "bufferView" : 18,
            "componentType" : 5126,
            "count" : 696,
            "type" : "VEC2"
        },
        {
            "bufferView" : 19,
            "componentType" : 5126,
            "count" : 696,
            "type" : "VEC2"
        },
        {
            "bufferView" : 20,
            "componentType" : 5126,
            "count" : 696,
            "type" : "VEC2"
        },
        {
            "bufferView" : 21,
            "componentType" : 5126,
            "count" : 696,
            "type" : "VEC2"
        },
        {
            "bufferView" : 22,
            "componentType" : 5126,
            "count" : 696,
            "type" : "VEC2"
        },
        {
            "bufferView" : 23,
            "componentType" : 5123,
            "count" : 696,
            "normalized" : true,
            "type" : "VEC4"
        },
        {
            "bufferView" : 24,
            "componentType" : 5123,
            "count" : 2016,
            "type" : "SCALAR"
        }
    ],
    "bufferViews" : [
        {
            "buffer" : 0,
            "byteLength" : 96408,
            "byteOffset" : 0
        },
        {
            "buffer" : 0,
            "byteLength" : 96408,
            "byteOffset" : 96408
        },
        {
            "buffer" : 0,
            "byteLength" : 64272,
            "byteOffset" : 192816
        },
        {
            "buffer" : 0,
            "byteLength" : 64272,
            "byteOffset" : 257088
        },
        {
            "buffer" : 0,
            "byteLength" : 64272,
            "byteOffset" : 321360
        },
        {
            "buffer" : 0,
            "byteLength" : 64272,
            "byteOffset" : 385632
        },
        {
            "buffer" : 0,
            "byteLength" : 64272,
            "byteOffset" : 449904
        },
        {
            "buffer" : 0,
            "byteLength" : 64272,
            "byteOffset" : 514176
        },
        {
            "buffer" : 0,
            "byteLength" : 64272,
            "byteOffset" : 578448
        },
        {
            "buffer" : 0,
            "byteLength" : 64272,
            "byteOffset" : 642720
        },
        {
            "buffer" : 0,
            "byteLength" : 64272,
            "byteOffset" : 706992
        },
        {
            "buffer" : 0,
            "byteLength" : 32238,
            "byteOffset" : 771264
        },
        {
            "buffer" : 0,
            "byteLength" : 44859,
            "byteOffset" : 803504
        },
        {
            "buffer" : 0,
            "byteLength" : 8352,
            "byteOffset" : 848364
        },
        {
            "buffer" : 0,
            "byteLength" : 8352,
            "byteOffset" : 856716
        },
        {
            "buffer" : 0,
            "byteLength" : 5568,
            "byteOffset" : 865068
        },
        {
            "buffer" : 0,
            "byteLength" : 5568,
            "byteOffset" : 870636
        },
        {
            "buffer" : 0,
            "byteLength" : 5568,
            "byteOffset" : 876204
        },
        {
            "buffer" : 0,
            "byteLength" : 5568,
            "byteOffset" : 881772
        },
        {
            "buffer" : 0,
            "byteLength" : 5568,
            "byteOffset" : 887340
        },
        {
            "buffer" : 0,
            "byteLength" : 5568,
            "byteOffset" : 892908
        },
        {
            "buffer" : 0,
            "byteLength" : 5568,
            "byteOffset" : 898476
        },
        {
            "buffer" : 0,
            "byteLength" : 5568,
            "byteOffset" : 904044
        },
        {
            "buffer" : 0,
            "byteLength" : 5568,
            "byteOffset" : 909612
        },
        {
            "buffer" : 0,
            "byteLength" : 4032,
            "byteOffset" : 915180
        },
        {
            "buffer" : 0,
            "byteLength" : 1411,
            "byteOffset" : 919212
        }
    ],
    "samplers" : [
        {
            "magFilter" : 9729,
            "minFilter" : 9987
        }
    ],
    "buffers" : [
        {
            "byteLength" : 920624,
            "uri" : "data:application/octet-stream;base64,"
        }
    ]
}
