<?xml version="1.0" standalone="no"?><!DOCTYPE svg PUBLIC "-//W3C//DTD SVG 1.1//EN" "http://www.w3.org/Graphics/SVG/1.1/DTD/svg11.dtd"><svg t="1665399731454" class="icon" viewBox="0 0 1024 1024" version="1.1" xmlns="http://www.w3.org/2000/svg" p-id="19045" xmlns:xlink="http://www.w3.org/1999/xlink" width="32" height="32"><path d="M96 1024V0h448v384h384v640H96z m416-544a32 32 0 0 0-32-32H192a32 32 0 0 0-32 32v96a32 32 0 0 0 32 32h288a32 32 0 0 0 32-32v-96z m352 224a32 32 0 0 0-32-32H192a32 32 0 0 0-32 32v96a32 32 0 0 0 32 32h640a32 32 0 0 0 32-32v-96z" fill="#3CC451" p-id="19046"></path><path d="M608 0l320 320H608V0z" fill="#B0E7B8" p-id="19047"></path></svg>