<?xml version="1.0" standalone="no"?><!DOCTYPE svg PUBLIC "-//W3C//DTD SVG 1.1//EN" "http://www.w3.org/Graphics/SVG/1.1/DTD/svg11.dtd"><svg t="1666080549716" class="icon" viewBox="0 0 1024 1024" version="1.1" xmlns="http://www.w3.org/2000/svg" p-id="4056" xmlns:xlink="http://www.w3.org/1999/xlink" width="200" height="200"><path d="M782.08 161.536a191.744 191.744 0 0 0-378.656 0H161.536v241.92a191.744 191.744 0 0 0 0 378.656V1024h307.712a114.88 114.88 0 0 1 0.128-64 127.36 127.36 0 0 1 246.784 0 114.88 114.88 0 0 1 0.128 64H1024v-308.16a115.136 115.136 0 0 1-64 0.832 127.488 127.488 0 0 1 0-247.776 115.136 115.136 0 0 1 64 0.864V161.536z m16.576 431.232A192.128 192.128 0 0 0 960 782.112V960h-178.144a191.776 191.776 0 0 0-378.176 0H225.536v-244.256A126.336 126.336 0 0 1 192 720.768a128 128 0 0 1 0-256 126.336 126.336 0 0 1 33.536 5.056V225.536h244.256A126.336 126.336 0 0 1 464.768 192a128 128 0 0 1 256 0 126.336 126.336 0 0 1-5.024 33.536H960v177.92a192.128 192.128 0 0 0-161.344 189.312z" fill="#575869" p-id="4057"></path></svg>