<?xml version="1.0" standalone="no"?><!DOCTYPE svg PUBLIC "-//W3C//DTD SVG 1.1//EN" "http://www.w3.org/Graphics/SVG/1.1/DTD/svg11.dtd"><svg t="1666080870292" class="icon" viewBox="0 0 1024 1024" version="1.1" xmlns="http://www.w3.org/2000/svg" p-id="15352" xmlns:xlink="http://www.w3.org/1999/xlink" width="200" height="200"><path d="M896.8 1006.8L160 1005.2c-15.2 0-28-12.4-28-28V44.8c0-15.2 12.4-28 28-28l736.8 1.6c15.2 0 28 12.4 28 28v932.4c0 15.6-12.4 28-28 28z" fill="#A49273" p-id="15353"></path><path d="M704.4 18.4h56.4v988h-56.4zM464.8 415.2c-31.6-28.4-79.6-27.2-109.6 2.4-14.8 14.8-23.2 34.8-23.2 55.6s8.4 41.2 23.2 55.6l92 91.2c4.8 4.8 11.2 7.6 18 7.6 6.8 0 13.2-2.8 18-7.6l92-91.2c14.8-14.8 23.2-34.8 23.2-56 0-20.8-8.4-41.2-23.2-56-30.8-28.8-78.8-30-110.4-1.6zM79.2 245.2c-15.6 0-28-12.8-28-28s12.8-28 28-28h155.6c15.6 0 28 12.8 28 28s-12.8 28-28 28H79.2zM79.2 427.6c-15.6 0-28-12.8-28-28s12.8-28 28-28h155.6c15.6 0 28 12.8 28 28s-12.8 28-28 28H79.2zM79.2 608.8c-15.6 0-28-12.8-28-28s12.8-28 28-28h155.6c15.6 0 28 12.8 28 28s-12.8 28-28 28H79.2zM79.2 789.2c-15.6 0-28-12.8-28-28 0-15.6 12.8-28 28-28h155.6c15.6 0 28 12.8 28 28 0 15.6-12.8 28-28 28H79.2z" fill="#D2C7B5" p-id="15354"></path></svg>