<?xml version="1.0" standalone="no"?><!DOCTYPE svg PUBLIC "-//W3C//DTD SVG 1.1//EN" "http://www.w3.org/Graphics/SVG/1.1/DTD/svg11.dtd"><svg t="1666080932017" class="icon" viewBox="0 0 1024 1024" version="1.1" xmlns="http://www.w3.org/2000/svg" p-id="18748" xmlns:xlink="http://www.w3.org/1999/xlink" width="200" height="200"><path d="M127.916217 602.394174l180.770953 0 0-180.780162-180.770953 0L127.916217 602.394174zM127.916217 828.311305l180.770953 0 0-180.781186-180.770953 0L127.916217 828.311305zM127.916217 376.469881l180.770953 0 0-180.780162-180.770953 0L127.916217 376.469881zM353.842557 602.394174l542.255552 0 0-180.780162-542.255552 0L353.842557 602.394174zM353.842557 828.311305l542.255552 0 0-180.781186-542.255552 0L353.842557 828.311305zM353.842557 376.469881l542.255552 0 0-180.780162-542.255552 0L353.842557 376.469881z" p-id="18749"></path></svg>