<?xml version="1.0" standalone="no"?><!DOCTYPE svg PUBLIC "-//W3C//DTD SVG 1.1//EN" "http://www.w3.org/Graphics/SVG/1.1/DTD/svg11.dtd"><svg t="1666080766080" class="icon" viewBox="0 0 1075 1024" version="1.1" xmlns="http://www.w3.org/2000/svg" p-id="10965" xmlns:xlink="http://www.w3.org/1999/xlink" width="209.9609375" height="200"><path d="M893.36685666 954.53866633H644.36419066l-124.513524-209.408 124.513524-209.408h249.027047L1017.90476166 745.13066633l-124.513524 209.408z m-325.071238-209.408l100.303238 167.131429H869.18095266l100.278857-167.131429-100.278857-167.131428h-200.582096z m21.942858 209.408H67.04761866V143.23809533h135.850667v50.054095h-83.382857v707.779048H557.10476166l33.036191 53.394285z m89.283047-206.555428a95.792762 95.792762 0 1 1 95.792762 93.769143 94.890667 94.890667 0 0 1-95.817143-93.866667z m37.083429 0a58.709333 58.709333 0 1 0 58.709333-57.465905 58.172952 58.172952 0 0 0-58.733714 57.368381z m-295.302096-233.813334H208.84723766v-45.251047h212.48v45.226666zM829.63504766 193.34095233h-83.358476V143.23809533h135.826285v356.888381h-52.467809z m-80.603429 210.553905H208.84723766v-45.275429h540.184381v45.251048z m-48.054857-130.023619H248.19809566V70.09523833H700.95238066v203.727238zM293.49790466 228.57142833h362.22781V115.39504733H293.49790466z" fill="#1296db" p-id="10966"></path></svg>