<?xml version="1.0" standalone="no"?><!DOCTYPE svg PUBLIC "-//W3C//DTD SVG 1.1//EN" "http://www.w3.org/Graphics/SVG/1.1/DTD/svg11.dtd"><svg t="1664789218225" class="icon" viewBox="0 0 1024 1024" version="1.1" xmlns="http://www.w3.org/2000/svg" p-id="3971" xmlns:xlink="http://www.w3.org/1999/xlink" width="200" height="200"><path d="M250.72 254.72m4 0l673.28 0q4 0 4 4l0 673.28q0 4-4 4l-673.28 0q-4 0-4-4l0-673.28q0-4 4-4Z" fill="#61D6C2" p-id="3972"></path><path d="M920 266.72v657.28H262.72V266.72H920m8-24H254.72a16 16 0 0 0-16 16v673.28a16 16 0 0 0 16 16H928a16 16 0 0 0 16-16V258.72a16 16 0 0 0-16-16z" fill="#333333" p-id="3973"></path><path d="M92 96m4 0l673.28 0q4 0 4 4l0 673.28q0 4-4 4l-673.28 0q-4 0-4-4l0-673.28q0-4 4-4Z" fill="#EDEDED" p-id="3974"></path><path d="M761.28 108v657.28H104V108h657.28m8-24H96a16 16 0 0 0-16 16v673.28a16 16 0 0 0 16 16h673.28a16 16 0 0 0 16-16V100a16 16 0 0 0-16-16z" fill="#333333" p-id="3975"></path><path d="M408.08 336.32h24v171.6h-24z" fill="#333333" p-id="3976"></path><path d="M414.08 356.96Q312 356.96 305.76 488.8" fill="#EDEDED" p-id="3977"></path><path d="M317.76 489.36l-24-1.12c3.12-65.36 26.48-143.28 120-143.28v24c-21.76 0-90.32 0-96 120.4z" fill="#333333" p-id="3978"></path><path d="M420.08 432q102.08 0 108.32 131.84" fill="#EDEDED" p-id="3979"></path><path d="M516.48 564.08c-5.68-120.4-73.92-120.4-96-120.4v-24c93.84 0 117.28 77.92 120 143.28z" fill="#333333" p-id="3980"></path><path d="M423.44 268.56m-62.32 0a62.32 62.32 0 1 0 124.64 0 62.32 62.32 0 1 0-124.64 0Z" fill="#61D6C2" p-id="3981"></path><path d="M423.44 342.88a74.32 74.32 0 1 1 74.32-74.32 74.4 74.4 0 0 1-74.32 74.32z m0-124.64a50.32 50.32 0 1 0 50.32 50.32 50.4 50.4 0 0 0-50.32-50.32z" fill="#333333" p-id="3982"></path><path d="M302.4 530.4m-48.4 0a48.4 48.4 0 1 0 96.8 0 48.4 48.4 0 1 0-96.8 0Z" fill="#61D6C2" p-id="3983"></path><path d="M302.4 590.8a60.4 60.4 0 1 1 60.4-60.4 60.48 60.48 0 0 1-60.4 60.4z m0-96.8a36.4 36.4 0 1 0 36.4 36.4 36.48 36.48 0 0 0-36.4-36.4z" fill="#333333" p-id="3984"></path><path d="M528.48 610.72m-48.4 0a48.4 48.4 0 1 0 96.8 0 48.4 48.4 0 1 0-96.8 0Z" fill="#61D6C2" p-id="3985"></path><path d="M528.48 671.12a60.4 60.4 0 1 1 60.4-60.4 60.48 60.48 0 0 1-60.4 60.4z m0-96.8a36.4 36.4 0 1 0 36.4 36.4 36.48 36.48 0 0 0-36.4-36.48z" fill="#333333" p-id="3986"></path></svg>