<svg xmlns="http://www.w3.org/2000/svg" xmlns:xlink="http://www.w3.org/1999/xlink" viewBox="0 0 64 64"><linearGradient id="4NMP0tlTlXBXF3UKsUsNya" x1="32" x2="32" y1="4.669" y2="58.17" gradientUnits="userSpaceOnUse" spreadMethod="reflect"><stop offset="0" stop-color="#1a6dff"/><stop offset="1" stop-color="#c822ff"/></linearGradient><path fill="url(#4NMP0tlTlXBXF3UKsUsNya)" d="M53.896,57.998c-0.46,0-0.925-0.105-1.362-0.321l-19.158-9.461 c-0.874-0.432-1.877-0.432-2.751,0l-19.158,9.461c-1.174,0.578-2.541,0.364-3.486-0.548c-0.982-0.947-1.252-2.368-0.689-3.62 l19.985-44.41c0.859-1.91,2.67-3.097,4.725-3.097s3.865,1.187,4.725,3.097l19.985,44.41c0.563,1.252,0.292,2.673-0.689,3.62 C55.428,57.701,54.668,57.998,53.896,57.998z M53.419,55.884c0.62,0.31,1.084-0.07,1.212-0.194c0.292-0.281,0.512-0.787,0.254-1.36 L34.9,9.919c-0.54-1.2-1.625-1.917-2.9-1.917s-2.36,0.717-2.9,1.917L9.115,54.329c-0.258,0.573-0.038,1.079,0.254,1.36 c0.127,0.122,0.592,0.502,1.212,0.194l19.158-9.461c1.438-0.709,3.085-0.709,4.522,0L53.419,55.884z"/><linearGradient id="4NMP0tlTlXBXF3UKsUsNyb" x1="32" x2="32" y1="16.335" y2="47.002" gradientUnits="userSpaceOnUse" spreadMethod="reflect"><stop offset="0" stop-color="#6dc7ff"/><stop offset="1" stop-color="#e6abff"/></linearGradient><path fill="url(#4NMP0tlTlXBXF3UKsUsNyb)" d="M44.586,46.869l-11.495-5.677c-0.69-0.341-1.492-0.341-2.182,0l-11.495,5.677 c-1.068,0.527-2.19-0.611-1.692-1.717l11.991-26.646c0.902-2.005,3.673-2.005,4.575,0l11.991,26.646 C46.776,46.258,45.654,47.396,44.586,46.869z"/></svg>