<?xml version="1.0" standalone="no"?><!DOCTYPE svg PUBLIC "-//W3C//DTD SVG 1.1//EN" "http://www.w3.org/Graphics/SVG/1.1/DTD/svg11.dtd"><svg t="1665054758296" class="icon" viewBox="0 0 1024 1024" version="1.1" xmlns="http://www.w3.org/2000/svg" p-id="5575" xmlns:xlink="http://www.w3.org/1999/xlink" width="200" height="200"><path d="M828.952381 326.704762c-43.885714-136.533333-170.666667-234.057143-316.952381-234.057143s-277.942857 97.52381-321.828571 234.057143C82.895238 351.085714 4.87619 448.609524 4.87619 560.761905c0 136.533333 107.27619 243.809524 243.809524 243.809524v-97.52381c-78.019048 0-146.285714-63.390476-146.285714-146.285714 0-73.142857 58.514286-136.533333 131.657143-146.285715l39.009524-4.87619 4.87619-34.133333c19.504762-112.152381 117.028571-190.171429 234.057143-190.171429 112.152381 0 209.67619 78.019048 229.180952 190.171429l4.876191 39.009523h39.009524c78.019048 4.87619 136.533333 68.266667 136.533333 146.285715 0 82.895238-63.390476 146.285714-146.285714 146.285714v97.52381c136.533333 0 243.809524-107.27619 243.809524-243.809524 0-112.152381-78.019048-209.67619-190.171429-234.057143z" p-id="5576" fill="#1296db"></path><path d="M614.4 599.771429l53.638095-53.638096L512 390.095238l-156.038095 156.038095 53.638095 53.638096L472.990476 536.380952v243.809524l-63.390476-63.390476-53.638095 58.514286 156.038095 156.038095 156.038095-156.038095-53.638095-58.514286-63.390476 63.390476v-243.809524z" p-id="5577" fill="#1296db"></path></svg>