<svg xmlns="http://www.w3.org/2000/svg" xmlns:xlink="http://www.w3.org/1999/xlink" viewBox="0 0 24 24" fill="#409BFF">
  <path d="M4 4C2.9057453 4 2 4.9057453 2 6L2 18C2 19.094255 2.9057453 20 4 20L20 20C21.094255 20 22 19.094255 22 18L22 8C22 6.9057453 21.094255 6 20 6L12 6L10 4L4 4 z M 4 6L9.171875 6L11.171875 8L20 8L20 18L4 18L4 6 z M 8.1816406 8.8183594L6.7675781 10.232422L9.0351562 12.5L6.7675781 14.767578L8.1816406 16.181641L11.863281 12.5L8.1816406 8.8183594 z M 13 14L13 16L17 16L17 14L13 14 z" fill="#409BFF" />
</svg>