<?xml version="1.0" standalone="no"?><!DOCTYPE svg PUBLIC "-//W3C//DTD SVG 1.1//EN" "http://www.w3.org/Graphics/SVG/1.1/DTD/svg11.dtd"><svg t="1664438915870" class="icon" viewBox="0 0 1024 1024" version="1.1" xmlns="http://www.w3.org/2000/svg" p-id="20847" xmlns:xlink="http://www.w3.org/1999/xlink" width="200" height="200"><path d="M733.14 199.46h-63.2v-46.89H354.13v46.89h-63.2c-50.14 0-78.94 40.07-78.94 78.13v515.72c0 38.14 28.8 78.13 78.94 78.13h442.13c50.14 0 78.94-40.07 78.94-78.13V277.58c0.08-38.13-28.73-78.12-78.86-78.12z m-189.5 125.02h142.13v31.23H543.64v-31.23zM385.77 183.8h252.62v62.55H385.77V183.8z m331.39 562.45H307v-31.07h410.17v31.07z m0.24-93.7H306.91v-30.99H717.4v30.99z m0-93.7H306.91v-31.07H717.4v31.07z m0-93.62H306.91v-31.07H717.4v31.07z m0 0" p-id="20848"></path></svg>