<?xml version="1.0" standalone="no"?><!DOCTYPE svg PUBLIC "-//W3C//DTD SVG 1.1//EN" "http://www.w3.org/Graphics/SVG/1.1/DTD/svg11.dtd"><svg t="1664444375610" class="icon" viewBox="0 0 1024 1024" version="1.1" xmlns="http://www.w3.org/2000/svg" p-id="1532" xmlns:xlink="http://www.w3.org/1999/xlink" width="16" height="16"><path d="M200.4 67c-49.2 0-89 39.8-89 89v712c0 49.2 39.8 89 89 89h623c49.2 0 89-39.8 89-89V352.4c0-23.6-9.4-46.2-26-63L690 93c-16.6-16.6-39.4-26-63-26H200.4z m0 89h426.6l196.4 196.4V868H200.4V156z m508.6 251.4c16-18.6 13.8-46.8-4.8-62.8s-46.8-13.8-62.8 4.8l-162 189-72.2-60.4c-18.8-15.8-46.8-13.4-62.8 5.4-15.8 18.8-13.4 46.8 5.4 62.8l106 89c18.6 15.6 46.6 13.4 62.4-5.2l190.8-222.6z" fill="#ffffff" p-id="1533"></path></svg>