<svg xmlns="http://www.w3.org/2000/svg" xmlns:xlink="http://www.w3.org/1999/xlink" viewBox="0 0 50 50" fill="#409BFF">
  <path d="M7 2L7 43L11 43L11 47L35 47L35 50L50 50L50 33L43 33L43 6L39 6L39 2L7 2 z M 9 4L37 4L37 6L11 6L11 41L9 41L9 4 z M 19.408203 10C19.953203 10 20.364344 10.263781 20.527344 10.550781C22.044344 10.550781 21.649922 12.665422 21.419922 13.357422C21.504922 13.443422 21.609375 13.678141 21.609375 13.994141C21.609375 14.447141 21.181641 14.71875 21.181641 14.71875C21.099641 15.29675 20.691359 15.773578 20.443359 15.892578C20.443359 16.255578 20.407359 16.532688 20.443359 16.929688C20.875359 18.089688 23.754672 17.763 23.888672 20L15 20C15.134 17.763 18.012359 18.088687 18.443359 16.929688C18.479359 16.532688 18.443359 16.255578 18.443359 15.892578C18.263359 15.797578 17.761594 15.28775 17.683594 14.71875C17.683594 14.71875 17.275906 14.524109 17.253906 13.912109C17.241906 13.588109 17.470703 13.359375 17.470703 13.359375C17.045703 11.730375 17.228203 10.04 19.408203 10 z M 30 12L38 12C38.552 12 39 12.448 39 13C39 13.552 38.552 14 38 14L30 14C29.448 14 29 13.552 29 13C29 12.448 29.448 12 30 12 z M 30 17L38 17C38.552 17 39 17.448 39 18C39 18.552 38.552 19 38 19L30 19C29.448 19 29 18.552 29 18C29 17.448 29.448 17 30 17 z M 16 27L30 27C30.552 27 31 27.448 31 28C31 28.552 30.552 29 30 29L16 29C15.448 29 15 28.552 15 28C15 27.448 15.448 27 16 27 z M 35 27L38 27C38.552 27 39 27.448 39 28C39 28.552 38.552 29 38 29L35 29C34.448 29 34 28.552 34 28C34 27.448 34.448 27 35 27 z M 16 33L27 33C27.552 33 28 33.448 28 34C28 34.552 27.552 35 27 35L16 35C15.448 35 15 34.552 15 34C15 33.448 15.448 33 16 33 z M 37 35L48 35L48 38L37 38L37 35 z M 16 39L30 39C30.552 39 31 39.448 31 40C31 40.552 30.552 41 30 41L16 41C15.448 41 15 40.552 15 40C15 39.448 15.448 39 16 39 z M 37 40L48 40L48 43L37 43L37 40 z M 37 45L48 45L48 48L37 48L37 45 z" fill="#409BFF" />
</svg>