<svg xmlns="http://www.w3.org/2000/svg" xmlns:xlink="http://www.w3.org/1999/xlink" viewBox="0 0 50 50" fill="#409BFF">
  <path d="M36,39c-1.1,0-2,0.9-2,2c0,1.1,0.9,2,2,2c1.1,0,2-0.9,2-2C38,39.9,37.1,39,36,39z M36,39c-1.1,0-2,0.9-2,2c0,1.1,0.9,2,2,2 c1.1,0,2-0.9,2-2C38,39.9,37.1,39,36,39z M36,39c-1.1,0-2,0.9-2,2c0,1.1,0.9,2,2,2c1.1,0,2-0.9,2-2C38,39.9,37.1,39,36,39z M36,39 c-1.1,0-2,0.9-2,2c0,1.1,0.9,2,2,2c1.1,0,2-0.9,2-2C38,39.9,37.1,39,36,39z M36,39c-1.1,0-2,0.9-2,2c0,1.1,0.9,2,2,2 c1.1,0,2-0.9,2-2C38,39.9,37.1,39,36,39z M36,39c-1.1,0-2,0.9-2,2c0,1.1,0.9,2,2,2c1.1,0,2-0.9,2-2C38,39.9,37.1,39,36,39z M36,39 c-1.1,0-2,0.9-2,2c0,1.1,0.9,2,2,2c1.1,0,2-0.9,2-2C38,39.9,37.1,39,36,39z M36,39c-1.1,0-2,0.9-2,2c0,1.1,0.9,2,2,2 c1.1,0,2-0.9,2-2C38,39.9,37.1,39,36,39z M36,39c-1.1,0-2,0.9-2,2c0,1.1,0.9,2,2,2c1.1,0,2-0.9,2-2C38,39.9,37.1,39,36,39z M36,39 c-1.1,0-2,0.9-2,2c0,1.1,0.9,2,2,2c1.1,0,2-0.9,2-2C38,39.9,37.1,39,36,39z M36,35c-3.3,0-6,2.7-6,6s2.7,6,6,6s6-2.7,6-6 S39.3,35,36,35z M36,45c-2.2,0-4-1.8-4-4s1.8-4,4-4s4,1.8,4,4S38.2,45,36,45z M36,39c-1.1,0-2,0.9-2,2c0,1.1,0.9,2,2,2 c1.1,0,2-0.9,2-2C38,39.9,37.1,39,36,39z M36,39c-1.1,0-2,0.9-2,2c0,1.1,0.9,2,2,2c1.1,0,2-0.9,2-2C38,39.9,37.1,39,36,39z M36,39 c-1.1,0-2,0.9-2,2c0,1.1,0.9,2,2,2c1.1,0,2-0.9,2-2C38,39.9,37.1,39,36,39z M36,39c-1.1,0-2,0.9-2,2c0,1.1,0.9,2,2,2 c1.1,0,2-0.9,2-2C38,39.9,37.1,39,36,39z M36,39c-1.1,0-2,0.9-2,2c0,1.1,0.9,2,2,2c1.1,0,2-0.9,2-2C38,39.9,37.1,39,36,39z M36,39 c-1.1,0-2,0.9-2,2c0,1.1,0.9,2,2,2c1.1,0,2-0.9,2-2C38,39.9,37.1,39,36,39z M36,39c-1.1,0-2,0.9-2,2c0,1.1,0.9,2,2,2 c1.1,0,2-0.9,2-2C38,39.9,37.1,39,36,39z M36,39c-1.1,0-2,0.9-2,2c0,1.1,0.9,2,2,2c1.1,0,2-0.9,2-2C38,39.9,37.1,39,36,39z M36,39 c-1.1,0-2,0.9-2,2c0,1.1,0.9,2,2,2c1.1,0,2-0.9,2-2C38,39.9,37.1,39,36,39z M36,39c-1.1,0-2,0.9-2,2c0,1.1,0.9,2,2,2 c1.1,0,2-0.9,2-2C38,39.9,37.1,39,36,39z M36,39c-1.1,0-2,0.9-2,2c0,1.1,0.9,2,2,2c1.1,0,2-0.9,2-2C38,39.9,37.1,39,36,39z M36,39 c-1.1,0-2,0.9-2,2c0,1.1,0.9,2,2,2c1.1,0,2-0.9,2-2C38,39.9,37.1,39,36,39z M36,39c-1.1,0-2,0.9-2,2c0,1.1,0.9,2,2,2 c1.1,0,2-0.9,2-2C38,39.9,37.1,39,36,39z M36,39c-1.1,0-2,0.9-2,2c0,1.1,0.9,2,2,2c1.1,0,2-0.9,2-2C38,39.9,37.1,39,36,39z M36,39 c-1.1,0-2,0.9-2,2c0,1.1,0.9,2,2,2c1.1,0,2-0.9,2-2C38,39.9,37.1,39,36,39z M36,39c-1.1,0-2,0.9-2,2c0,1.1,0.9,2,2,2 c1.1,0,2-0.9,2-2C38,39.9,37.1,39,36,39z M36,39c-1.1,0-2,0.9-2,2c0,1.1,0.9,2,2,2c1.1,0,2-0.9,2-2C38,39.9,37.1,39,36,39z M36,35 c-3.3,0-6,2.7-6,6s2.7,6,6,6s6-2.7,6-6S39.3,35,36,35z M36,45c-2.2,0-4-1.8-4-4s1.8-4,4-4s4,1.8,4,4S38.2,45,36,45z M36,39 c-1.1,0-2,0.9-2,2c0,1.1,0.9,2,2,2c1.1,0,2-0.9,2-2C38,39.9,37.1,39,36,39z M36,39c-1.1,0-2,0.9-2,2c0,1.1,0.9,2,2,2 c1.1,0,2-0.9,2-2C38,39.9,37.1,39,36,39z M36,39c-1.1,0-2,0.9-2,2c0,1.1,0.9,2,2,2c1.1,0,2-0.9,2-2C38,39.9,37.1,39,36,39z M36,39 c-1.1,0-2,0.9-2,2c0,1.1,0.9,2,2,2c1.1,0,2-0.9,2-2C38,39.9,37.1,39,36,39z M36,39c-1.1,0-2,0.9-2,2c0,1.1,0.9,2,2,2 c1.1,0,2-0.9,2-2C38,39.9,37.1,39,36,39z M36,39c-1.1,0-2,0.9-2,2c0,1.1,0.9,2,2,2c1.1,0,2-0.9,2-2C38,39.9,37.1,39,36,39z M36,39 c-1.1,0-2,0.9-2,2c0,1.1,0.9,2,2,2c1.1,0,2-0.9,2-2C38,39.9,37.1,39,36,39z M36,39c-1.1,0-2,0.9-2,2c0,1.1,0.9,2,2,2 c1.1,0,2-0.9,2-2C38,39.9,37.1,39,36,39z M36,39c-1.1,0-2,0.9-2,2c0,1.1,0.9,2,2,2c1.1,0,2-0.9,2-2C38,39.9,37.1,39,36,39z M36,39 c-1.1,0-2,0.9-2,2c0,1.1,0.9,2,2,2c1.1,0,2-0.9,2-2C38,39.9,37.1,39,36,39z M36,39c-1.1,0-2,0.9-2,2c0,1.1,0.9,2,2,2 c1.1,0,2-0.9,2-2C38,39.9,37.1,39,36,39z M36,39c-1.1,0-2,0.9-2,2c0,1.1,0.9,2,2,2c1.1,0,2-0.9,2-2C38,39.9,37.1,39,36,39z M36,39 c-1.1,0-2,0.9-2,2c0,1.1,0.9,2,2,2c1.1,0,2-0.9,2-2C38,39.9,37.1,39,36,39z M36,39c-1.1,0-2,0.9-2,2c0,1.1,0.9,2,2,2 c1.1,0,2-0.9,2-2C38,39.9,37.1,39,36,39z M36,39c-1.1,0-2,0.9-2,2c0,1.1,0.9,2,2,2c1.1,0,2-0.9,2-2C38,39.9,37.1,39,36,39z M36,39 c-1.1,0-2,0.9-2,2c0,1.1,0.9,2,2,2c1.1,0,2-0.9,2-2C38,39.9,37.1,39,36,39z M36,39c-1.1,0-2,0.9-2,2c0,1.1,0.9,2,2,2 c1.1,0,2-0.9,2-2C38,39.9,37.1,39,36,39z M36,35c-3.3,0-6,2.7-6,6s2.7,6,6,6s6-2.7,6-6S39.3,35,36,35z M36,45c-2.2,0-4-1.8-4-4 s1.8-4,4-4s4,1.8,4,4S38.2,45,36,45z M36,39c-1.1,0-2,0.9-2,2c0,1.1,0.9,2,2,2c1.1,0,2-0.9,2-2C38,39.9,37.1,39,36,39z M36,39 c-1.1,0-2,0.9-2,2c0,1.1,0.9,2,2,2c1.1,0,2-0.9,2-2C38,39.9,37.1,39,36,39z M36,39c-1.1,0-2,0.9-2,2c0,1.1,0.9,2,2,2 c1.1,0,2-0.9,2-2C38,39.9,37.1,39,36,39z M36,39c-1.1,0-2,0.9-2,2c0,1.1,0.9,2,2,2c1.1,0,2-0.9,2-2C38,39.9,37.1,39,36,39z M36,39 c-1.1,0-2,0.9-2,2c0,1.1,0.9,2,2,2c1.1,0,2-0.9,2-2C38,39.9,37.1,39,36,39z M36,39c-1.1,0-2,0.9-2,2c0,1.1,0.9,2,2,2 c1.1,0,2-0.9,2-2C38,39.9,37.1,39,36,39z M36,39c-1.1,0-2,0.9-2,2c0,1.1,0.9,2,2,2c1.1,0,2-0.9,2-2C38,39.9,37.1,39,36,39z M36,39 c-1.1,0-2,0.9-2,2c0,1.1,0.9,2,2,2c1.1,0,2-0.9,2-2C38,39.9,37.1,39,36,39z M36,39c-1.1,0-2,0.9-2,2c0,1.1,0.9,2,2,2 c1.1,0,2-0.9,2-2C38,39.9,37.1,39,36,39z M36,39c-1.1,0-2,0.9-2,2c0,1.1,0.9,2,2,2c1.1,0,2-0.9,2-2C38,39.9,37.1,39,36,39z M36,39 c-1.1,0-2,0.9-2,2c0,1.1,0.9,2,2,2c1.1,0,2-0.9,2-2C38,39.9,37.1,39,36,39z M36,39c-1.1,0-2,0.9-2,2c0,1.1,0.9,2,2,2 c1.1,0,2-0.9,2-2C38,39.9,37.1,39,36,39z M36,39c-1.1,0-2,0.9-2,2c0,1.1,0.9,2,2,2c1.1,0,2-0.9,2-2C38,39.9,37.1,39,36,39z M36,35 c-3.3,0-6,2.7-6,6s2.7,6,6,6s6-2.7,6-6S39.3,35,36,35z M36,45c-2.2,0-4-1.8-4-4s1.8-4,4-4s4,1.8,4,4S38.2,45,36,45z M36,39 c-1.1,0-2,0.9-2,2c0,1.1,0.9,2,2,2c1.1,0,2-0.9,2-2C38,39.9,37.1,39,36,39z M36,39c-1.1,0-2,0.9-2,2c0,1.1,0.9,2,2,2 c1.1,0,2-0.9,2-2C38,39.9,37.1,39,36,39z M36,39c-1.1,0-2,0.9-2,2c0,1.1,0.9,2,2,2c1.1,0,2-0.9,2-2C38,39.9,37.1,39,36,39z M36,39 c-1.1,0-2,0.9-2,2c0,1.1,0.9,2,2,2c1.1,0,2-0.9,2-2C38,39.9,37.1,39,36,39z M36,39c-1.1,0-2,0.9-2,2c0,1.1,0.9,2,2,2 c1.1,0,2-0.9,2-2C38,39.9,37.1,39,36,39z M36,39c-1.1,0-2,0.9-2,2c0,1.1,0.9,2,2,2c1.1,0,2-0.9,2-2C38,39.9,37.1,39,36,39z M36,39 c-1.1,0-2,0.9-2,2c0,1.1,0.9,2,2,2c1.1,0,2-0.9,2-2C38,39.9,37.1,39,36,39z M36,39c-1.1,0-2,0.9-2,2c0,1.1,0.9,2,2,2 c1.1,0,2-0.9,2-2C38,39.9,37.1,39,36,39z M36,39c-1.1,0-2,0.9-2,2c0,1.1,0.9,2,2,2c1.1,0,2-0.9,2-2C38,39.9,37.1,39,36,39z M36,39 c-1.1,0-2,0.9-2,2c0,1.1,0.9,2,2,2c1.1,0,2-0.9,2-2C38,39.9,37.1,39,36,39z M36,39c-1.1,0-2,0.9-2,2c0,1.1,0.9,2,2,2 c1.1,0,2-0.9,2-2C38,39.9,37.1,39,36,39z M36,39c-1.1,0-2,0.9-2,2c0,1.1,0.9,2,2,2c1.1,0,2-0.9,2-2C38,39.9,37.1,39,36,39z M36,39 c-1.1,0-2,0.9-2,2c0,1.1,0.9,2,2,2c1.1,0,2-0.9,2-2C38,39.9,37.1,39,36,39z M36,35c-3.3,0-6,2.7-6,6s2.7,6,6,6s6-2.7,6-6 S39.3,35,36,35z M36,45c-2.2,0-4-1.8-4-4s1.8-4,4-4s4,1.8,4,4S38.2,45,36,45z M36,39c-1.1,0-2,0.9-2,2c0,1.1,0.9,2,2,2 c1.1,0,2-0.9,2-2C38,39.9,37.1,39,36,39z M36,39c-1.1,0-2,0.9-2,2c0,1.1,0.9,2,2,2c1.1,0,2-0.9,2-2C38,39.9,37.1,39,36,39z M36,39 c-1.1,0-2,0.9-2,2c0,1.1,0.9,2,2,2c1.1,0,2-0.9,2-2C38,39.9,37.1,39,36,39z M36,39c-1.1,0-2,0.9-2,2c0,1.1,0.9,2,2,2 c1.1,0,2-0.9,2-2C38,39.9,37.1,39,36,39z M36,39c-1.1,0-2,0.9-2,2c0,1.1,0.9,2,2,2c1.1,0,2-0.9,2-2C38,39.9,37.1,39,36,39z M36,39 c-1.1,0-2,0.9-2,2c0,1.1,0.9,2,2,2c1.1,0,2-0.9,2-2C38,39.9,37.1,39,36,39z M36,39c-1.1,0-2,0.9-2,2c0,1.1,0.9,2,2,2 c1.1,0,2-0.9,2-2C38,39.9,37.1,39,36,39z M36,39c-1.1,0-2,0.9-2,2c0,1.1,0.9,2,2,2c1.1,0,2-0.9,2-2C38,39.9,37.1,39,36,39z M36,39 c-1.1,0-2,0.9-2,2c0,1.1,0.9,2,2,2c1.1,0,2-0.9,2-2C38,39.9,37.1,39,36,39z M36,35c-3.3,0-6,2.7-6,6s2.7,6,6,6s6-2.7,6-6 S39.3,35,36,35z M36,45c-2.2,0-4-1.8-4-4s1.8-4,4-4s4,1.8,4,4S38.2,45,36,45z M36,39c-1.1,0-2,0.9-2,2c0,1.1,0.9,2,2,2 c1.1,0,2-0.9,2-2C38,39.9,37.1,39,36,39z M36,39c-1.1,0-2,0.9-2,2c0,1.1,0.9,2,2,2c1.1,0,2-0.9,2-2C38,39.9,37.1,39,36,39z M36,39 c-1.1,0-2,0.9-2,2c0,1.1,0.9,2,2,2c1.1,0,2-0.9,2-2C38,39.9,37.1,39,36,39z M36,39c-1.1,0-2,0.9-2,2c0,1.1,0.9,2,2,2 c1.1,0,2-0.9,2-2C38,39.9,37.1,39,36,39z M36,39c-1.1,0-2,0.9-2,2c0,1.1,0.9,2,2,2c1.1,0,2-0.9,2-2C38,39.9,37.1,39,36,39z M36,39 c-1.1,0-2,0.9-2,2c0,1.1,0.9,2,2,2c1.1,0,2-0.9,2-2C38,39.9,37.1,39,36,39z M36,39c-1.1,0-2,0.9-2,2c0,1.1,0.9,2,2,2 c1.1,0,2-0.9,2-2C38,39.9,37.1,39,36,39z M36,39c-1.1,0-2,0.9-2,2c0,1.1,0.9,2,2,2c1.1,0,2-0.9,2-2C38,39.9,37.1,39,36,39z M36,39 c-1.1,0-2,0.9-2,2c0,1.1,0.9,2,2,2c1.1,0,2-0.9,2-2C38,39.9,37.1,39,36,39z M36,35c-3.3,0-6,2.7-6,6s2.7,6,6,6s6-2.7,6-6 S39.3,35,36,35z M36,45c-2.2,0-4-1.8-4-4s1.8-4,4-4s4,1.8,4,4S38.2,45,36,45z M36,39c-1.1,0-2,0.9-2,2c0,1.1,0.9,2,2,2 c1.1,0,2-0.9,2-2C38,39.9,37.1,39,36,39z M36,39c-1.1,0-2,0.9-2,2c0,1.1,0.9,2,2,2c1.1,0,2-0.9,2-2C38,39.9,37.1,39,36,39z M36,39 c-1.1,0-2,0.9-2,2c0,1.1,0.9,2,2,2c1.1,0,2-0.9,2-2C38,39.9,37.1,39,36,39z M36,39c-1.1,0-2,0.9-2,2c0,1.1,0.9,2,2,2 c1.1,0,2-0.9,2-2C38,39.9,37.1,39,36,39z M36,39c-1.1,0-2,0.9-2,2c0,1.1,0.9,2,2,2c1.1,0,2-0.9,2-2C38,39.9,37.1,39,36,39z M36,35 c-3.3,0-6,2.7-6,6s2.7,6,6,6s6-2.7,6-6S39.3,35,36,35z M36,45c-2.2,0-4-1.8-4-4s1.8-4,4-4s4,1.8,4,4S38.2,45,36,45z M36,39 c-1.1,0-2,0.9-2,2c0,1.1,0.9,2,2,2c1.1,0,2-0.9,2-2C38,39.9,37.1,39,36,39z M36,39c-1.1,0-2,0.9-2,2c0,1.1,0.9,2,2,2 c1.1,0,2-0.9,2-2C38,39.9,37.1,39,36,39z M36,39c-1.1,0-2,0.9-2,2c0,1.1,0.9,2,2,2c1.1,0,2-0.9,2-2C38,39.9,37.1,39,36,39z M36,39 c-1.1,0-2,0.9-2,2c0,1.1,0.9,2,2,2c1.1,0,2-0.9,2-2C38,39.9,37.1,39,36,39z M36,39c-1.1,0-2,0.9-2,2c0,1.1,0.9,2,2,2 c1.1,0,2-0.9,2-2C38,39.9,37.1,39,36,39z M36,35c-3.3,0-6,2.7-6,6s2.7,6,6,6s6-2.7,6-6S39.3,35,36,35z M36,45c-2.2,0-4-1.8-4-4 s1.8-4,4-4s4,1.8,4,4S38.2,45,36,45z M36,39c-1.1,0-2,0.9-2,2c0,1.1,0.9,2,2,2c1.1,0,2-0.9,2-2C38,39.9,37.1,39,36,39z M36,39 c-1.1,0-2,0.9-2,2c0,1.1,0.9,2,2,2c1.1,0,2-0.9,2-2C38,39.9,37.1,39,36,39z M36,39c-1.1,0-2,0.9-2,2c0,1.1,0.9,2,2,2 c1.1,0,2-0.9,2-2C38,39.9,37.1,39,36,39z M36,39c-1.1,0-2,0.9-2,2c0,1.1,0.9,2,2,2c1.1,0,2-0.9,2-2C38,39.9,37.1,39,36,39z M36,39 c-1.1,0-2,0.9-2,2c0,1.1,0.9,2,2,2c1.1,0,2-0.9,2-2C38,39.9,37.1,39,36,39z M36,39c-1.1,0-2,0.9-2,2c0,1.1,0.9,2,2,2 c1.1,0,2-0.9,2-2C38,39.9,37.1,39,36,39z M36,39c-1.1,0-2,0.9-2,2c0,1.1,0.9,2,2,2c1.1,0,2-0.9,2-2C38,39.9,37.1,39,36,39z M36,35 c-3.3,0-6,2.7-6,6s2.7,6,6,6s6-2.7,6-6S39.3,35,36,35z M36,45c-2.2,0-4-1.8-4-4s1.8-4,4-4s4,1.8,4,4S38.2,45,36,45z M36,39 c-1.1,0-2,0.9-2,2c0,1.1,0.9,2,2,2c1.1,0,2-0.9,2-2C38,39.9,37.1,39,36,39z M36,39c-1.1,0-2,0.9-2,2c0,1.1,0.9,2,2,2 c1.1,0,2-0.9,2-2C38,39.9,37.1,39,36,39z M36,39c-1.1,0-2,0.9-2,2c0,1.1,0.9,2,2,2c1.1,0,2-0.9,2-2C38,39.9,37.1,39,36,39z M36,39 c-1.1,0-2,0.9-2,2c0,1.1,0.9,2,2,2c1.1,0,2-0.9,2-2C38,39.9,37.1,39,36,39z M36,39c-1.1,0-2,0.9-2,2c0,1.1,0.9,2,2,2 c1.1,0,2-0.9,2-2C38,39.9,37.1,39,36,39z M36,39c-1.1,0-2,0.9-2,2c0,1.1,0.9,2,2,2c1.1,0,2-0.9,2-2C38,39.9,37.1,39,36,39z M36,39 c-1.1,0-2,0.9-2,2c0,1.1,0.9,2,2,2c1.1,0,2-0.9,2-2C38,39.9,37.1,39,36,39z M36,35c-3.3,0-6,2.7-6,6s2.7,6,6,6s6-2.7,6-6 S39.3,35,36,35z M36,45c-2.2,0-4-1.8-4-4s1.8-4,4-4s4,1.8,4,4S38.2,45,36,45z M36,39c-1.1,0-2,0.9-2,2c0,1.1,0.9,2,2,2 c1.1,0,2-0.9,2-2C38,39.9,37.1,39,36,39z M36,39c-1.1,0-2,0.9-2,2c0,1.1,0.9,2,2,2c1.1,0,2-0.9,2-2C38,39.9,37.1,39,36,39z M36,39 c-1.1,0-2,0.9-2,2c0,1.1,0.9,2,2,2c1.1,0,2-0.9,2-2C38,39.9,37.1,39,36,39z M36,39c-1.1,0-2,0.9-2,2c0,1.1,0.9,2,2,2 c1.1,0,2-0.9,2-2C38,39.9,37.1,39,36,39z M36,39c-1.1,0-2,0.9-2,2c0,1.1,0.9,2,2,2c1.1,0,2-0.9,2-2C38,39.9,37.1,39,36,39z M36,39 c-1.1,0-2,0.9-2,2c0,1.1,0.9,2,2,2c1.1,0,2-0.9,2-2C38,39.9,37.1,39,36,39z M36,39c-1.1,0-2,0.9-2,2c0,1.1,0.9,2,2,2 c1.1,0,2-0.9,2-2C38,39.9,37.1,39,36,39z M36,39c-1.1,0-2,0.9-2,2c0,1.1,0.9,2,2,2c1.1,0,2-0.9,2-2C38,39.9,37.1,39,36,39z M36,39 c-1.1,0-2,0.9-2,2c0,1.1,0.9,2,2,2c1.1,0,2-0.9,2-2C38,39.9,37.1,39,36,39z M36,39c-1.1,0-2,0.9-2,2c0,1.1,0.9,2,2,2 c1.1,0,2-0.9,2-2C38,39.9,37.1,39,36,39z M36,39c-1.1,0-2,0.9-2,2c0,1.1,0.9,2,2,2c1.1,0,2-0.9,2-2C38,39.9,37.1,39,36,39z M36,35 c-3.3,0-6,2.7-6,6s2.7,6,6,6s6-2.7,6-6S39.3,35,36,35z M36,45c-2.2,0-4-1.8-4-4s1.8-4,4-4s4,1.8,4,4S38.2,45,36,45z M36,39 c-1.1,0-2,0.9-2,2c0,1.1,0.9,2,2,2c1.1,0,2-0.9,2-2C38,39.9,37.1,39,36,39z M36,39c-1.1,0-2,0.9-2,2c0,1.1,0.9,2,2,2 c1.1,0,2-0.9,2-2C38,39.9,37.1,39,36,39z M36,39c-1.1,0-2,0.9-2,2c0,1.1,0.9,2,2,2c1.1,0,2-0.9,2-2C38,39.9,37.1,39,36,39z M36,39 c-1.1,0-2,0.9-2,2c0,1.1,0.9,2,2,2c1.1,0,2-0.9,2-2C38,39.9,37.1,39,36,39z M36,39c-1.1,0-2,0.9-2,2c0,1.1,0.9,2,2,2 c1.1,0,2-0.9,2-2C38,39.9,37.1,39,36,39z M36,39c-1.1,0-2,0.9-2,2c0,1.1,0.9,2,2,2c1.1,0,2-0.9,2-2C38,39.9,37.1,39,36,39z M36,39 c-1.1,0-2,0.9-2,2c0,1.1,0.9,2,2,2c1.1,0,2-0.9,2-2C38,39.9,37.1,39,36,39z M36,39c-1.1,0-2,0.9-2,2c0,1.1,0.9,2,2,2 c1.1,0,2-0.9,2-2C38,39.9,37.1,39,36,39z M36,39c-1.1,0-2,0.9-2,2c0,1.1,0.9,2,2,2c1.1,0,2-0.9,2-2C38,39.9,37.1,39,36,39z M36,39 c-1.1,0-2,0.9-2,2c0,1.1,0.9,2,2,2c1.1,0,2-0.9,2-2C38,39.9,37.1,39,36,39z M36,39c-1.1,0-2,0.9-2,2c0,1.1,0.9,2,2,2 c1.1,0,2-0.9,2-2C38,39.9,37.1,39,36,39z M36,35c-3.3,0-6,2.7-6,6s2.7,6,6,6s6-2.7,6-6S39.3,35,36,35z M36,45c-2.2,0-4-1.8-4-4 s1.8-4,4-4s4,1.8,4,4S38.2,45,36,45z M36,39c-1.1,0-2,0.9-2,2c0,1.1,0.9,2,2,2c1.1,0,2-0.9,2-2C38,39.9,37.1,39,36,39z M36,39 c-1.1,0-2,0.9-2,2c0,1.1,0.9,2,2,2c1.1,0,2-0.9,2-2C38,39.9,37.1,39,36,39z M36,39c-1.1,0-2,0.9-2,2c0,1.1,0.9,2,2,2 c1.1,0,2-0.9,2-2C38,39.9,37.1,39,36,39z M36,39c-1.1,0-2,0.9-2,2c0,1.1,0.9,2,2,2c1.1,0,2-0.9,2-2C38,39.9,37.1,39,36,39z M36,39 c-1.1,0-2,0.9-2,2c0,1.1,0.9,2,2,2c1.1,0,2-0.9,2-2C38,39.9,37.1,39,36,39z M36,39c-1.1,0-2,0.9-2,2c0,1.1,0.9,2,2,2 c1.1,0,2-0.9,2-2C38,39.9,37.1,39,36,39z M36,39c-1.1,0-2,0.9-2,2c0,1.1,0.9,2,2,2c1.1,0,2-0.9,2-2C38,39.9,37.1,39,36,39z M36,39 c-1.1,0-2,0.9-2,2c0,1.1,0.9,2,2,2c1.1,0,2-0.9,2-2C38,39.9,37.1,39,36,39z M36,39c-1.1,0-2,0.9-2,2c0,1.1,0.9,2,2,2 c1.1,0,2-0.9,2-2C38,39.9,37.1,39,36,39z M36,39c-1.1,0-2,0.9-2,2c0,1.1,0.9,2,2,2c1.1,0,2-0.9,2-2C38,39.9,37.1,39,36,39z M36,39 c-1.1,0-2,0.9-2,2c0,1.1,0.9,2,2,2c1.1,0,2-0.9,2-2C38,39.9,37.1,39,36,39z M36,39c-1.1,0-2,0.9-2,2c0,1.1,0.9,2,2,2 c1.1,0,2-0.9,2-2C38,39.9,37.1,39,36,39z M36,39c-1.1,0-2,0.9-2,2c0,1.1,0.9,2,2,2c1.1,0,2-0.9,2-2C38,39.9,37.1,39,36,39z M36,39 c-1.1,0-2,0.9-2,2c0,1.1,0.9,2,2,2c1.1,0,2-0.9,2-2C38,39.9,37.1,39,36,39z M36,39c-1.1,0-2,0.9-2,2c0,1.1,0.9,2,2,2 c1.1,0,2-0.9,2-2C38,39.9,37.1,39,36,39z M36,35c-3.3,0-6,2.7-6,6s2.7,6,6,6s6-2.7,6-6S39.3,35,36,35z M36,45c-2.2,0-4-1.8-4-4 s1.8-4,4-4s4,1.8,4,4S38.2,45,36,45z M36,39c-1.1,0-2,0.9-2,2c0,1.1,0.9,2,2,2c1.1,0,2-0.9,2-2C38,39.9,37.1,39,36,39z M36,39 c-1.1,0-2,0.9-2,2c0,1.1,0.9,2,2,2c1.1,0,2-0.9,2-2C38,39.9,37.1,39,36,39z M36,39c-1.1,0-2,0.9-2,2c0,1.1,0.9,2,2,2 c1.1,0,2-0.9,2-2C38,39.9,37.1,39,36,39z M36,39c-1.1,0-2,0.9-2,2c0,1.1,0.9,2,2,2c1.1,0,2-0.9,2-2C38,39.9,37.1,39,36,39z M36,39 c-1.1,0-2,0.9-2,2c0,1.1,0.9,2,2,2c1.1,0,2-0.9,2-2C38,39.9,37.1,39,36,39z M36,39c-1.1,0-2,0.9-2,2c0,1.1,0.9,2,2,2 c1.1,0,2-0.9,2-2C38,39.9,37.1,39,36,39z M36,39c-1.1,0-2,0.9-2,2c0,1.1,0.9,2,2,2c1.1,0,2-0.9,2-2C38,39.9,37.1,39,36,39z M36,39 c-1.1,0-2,0.9-2,2c0,1.1,0.9,2,2,2c1.1,0,2-0.9,2-2C38,39.9,37.1,39,36,39z M36,39c-1.1,0-2,0.9-2,2c0,1.1,0.9,2,2,2 c1.1,0,2-0.9,2-2C38,39.9,37.1,39,36,39z M36,39c-1.1,0-2,0.9-2,2c0,1.1,0.9,2,2,2c1.1,0,2-0.9,2-2C38,39.9,37.1,39,36,39z M36,39 c-1.1,0-2,0.9-2,2c0,1.1,0.9,2,2,2c1.1,0,2-0.9,2-2C38,39.9,37.1,39,36,39z M36,39c-1.1,0-2,0.9-2,2c0,1.1,0.9,2,2,2 c1.1,0,2-0.9,2-2C38,39.9,37.1,39,36,39z M36,39c-1.1,0-2,0.9-2,2c0,1.1,0.9,2,2,2c1.1,0,2-0.9,2-2C38,39.9,37.1,39,36,39z M36,39 c-1.1,0-2,0.9-2,2c0,1.1,0.9,2,2,2c1.1,0,2-0.9,2-2C38,39.9,37.1,39,36,39z M36,39c-1.1,0-2,0.9-2,2c0,1.1,0.9,2,2,2 c1.1,0,2-0.9,2-2C38,39.9,37.1,39,36,39z M36,35c-3.3,0-6,2.7-6,6s2.7,6,6,6s6-2.7,6-6S39.3,35,36,35z M36,45c-2.2,0-4-1.8-4-4 s1.8-4,4-4s4,1.8,4,4S38.2,45,36,45z M36,39c-1.1,0-2,0.9-2,2c0,1.1,0.9,2,2,2c1.1,0,2-0.9,2-2C38,39.9,37.1,39,36,39z M36,39 c-1.1,0-2,0.9-2,2c0,1.1,0.9,2,2,2c1.1,0,2-0.9,2-2C38,39.9,37.1,39,36,39z M36,39c-1.1,0-2,0.9-2,2c0,1.1,0.9,2,2,2 c1.1,0,2-0.9,2-2C38,39.9,37.1,39,36,39z M36,39c-1.1,0-2,0.9-2,2c0,1.1,0.9,2,2,2c1.1,0,2-0.9,2-2C38,39.9,37.1,39,36,39z M36,39 c-1.1,0-2,0.9-2,2c0,1.1,0.9,2,2,2c1.1,0,2-0.9,2-2C38,39.9,37.1,39,36,39z M36,39c-1.1,0-2,0.9-2,2c0,1.1,0.9,2,2,2 c1.1,0,2-0.9,2-2C38,39.9,37.1,39,36,39z M36,39c-1.1,0-2,0.9-2,2c0,1.1,0.9,2,2,2c1.1,0,2-0.9,2-2C38,39.9,37.1,39,36,39z M36,39 c-1.1,0-2,0.9-2,2c0,1.1,0.9,2,2,2c1.1,0,2-0.9,2-2C38,39.9,37.1,39,36,39z M36,39c-1.1,0-2,0.9-2,2c0,1.1,0.9,2,2,2 c1.1,0,2-0.9,2-2C38,39.9,37.1,39,36,39z M36,39c-1.1,0-2,0.9-2,2c0,1.1,0.9,2,2,2c1.1,0,2-0.9,2-2C38,39.9,37.1,39,36,39z M36,39 c-1.1,0-2,0.9-2,2c0,1.1,0.9,2,2,2c1.1,0,2-0.9,2-2C38,39.9,37.1,39,36,39z M36,39c-1.1,0-2,0.9-2,2c0,1.1,0.9,2,2,2 c1.1,0,2-0.9,2-2C38,39.9,37.1,39,36,39z M36,39c-1.1,0-2,0.9-2,2c0,1.1,0.9,2,2,2c1.1,0,2-0.9,2-2C38,39.9,37.1,39,36,39z M36,39 c-1.1,0-2,0.9-2,2c0,1.1,0.9,2,2,2c1.1,0,2-0.9,2-2C38,39.9,37.1,39,36,39z M36,39c-1.1,0-2,0.9-2,2c0,1.1,0.9,2,2,2 c1.1,0,2-0.9,2-2C38,39.9,37.1,39,36,39z M36,39c-1.1,0-2,0.9-2,2c0,1.1,0.9,2,2,2c1.1,0,2-0.9,2-2C38,39.9,37.1,39,36,39z M36,39 c-1.1,0-2,0.9-2,2c0,1.1,0.9,2,2,2c1.1,0,2-0.9,2-2C38,39.9,37.1,39,36,39z M36,39c-1.1,0-2,0.9-2,2c0,1.1,0.9,2,2,2 c1.1,0,2-0.9,2-2C38,39.9,37.1,39,36,39z M36,39c-1.1,0-2,0.9-2,2c0,1.1,0.9,2,2,2c1.1,0,2-0.9,2-2C38,39.9,37.1,39,36,39z M36,35 c-3.3,0-6,2.7-6,6s2.7,6,6,6s6-2.7,6-6S39.3,35,36,35z M36,45c-2.2,0-4-1.8-4-4s1.8-4,4-4s4,1.8,4,4S38.2,45,36,45z M36,39 c-1.1,0-2,0.9-2,2c0,1.1,0.9,2,2,2c1.1,0,2-0.9,2-2C38,39.9,37.1,39,36,39z M36,39c-1.1,0-2,0.9-2,2c0,1.1,0.9,2,2,2 c1.1,0,2-0.9,2-2C38,39.9,37.1,39,36,39z M36,39c-1.1,0-2,0.9-2,2c0,1.1,0.9,2,2,2c1.1,0,2-0.9,2-2C38,39.9,37.1,39,36,39z M36,39 c-1.1,0-2,0.9-2,2c0,1.1,0.9,2,2,2c1.1,0,2-0.9,2-2C38,39.9,37.1,39,36,39z M36,39c-1.1,0-2,0.9-2,2c0,1.1,0.9,2,2,2 c1.1,0,2-0.9,2-2C38,39.9,37.1,39,36,39z M36,39c-1.1,0-2,0.9-2,2c0,1.1,0.9,2,2,2c1.1,0,2-0.9,2-2C38,39.9,37.1,39,36,39z M36,39 c-1.1,0-2,0.9-2,2c0,1.1,0.9,2,2,2c1.1,0,2-0.9,2-2C38,39.9,37.1,39,36,39z M36,39c-1.1,0-2,0.9-2,2c0,1.1,0.9,2,2,2 c1.1,0,2-0.9,2-2C38,39.9,37.1,39,36,39z M36,39c-1.1,0-2,0.9-2,2c0,1.1,0.9,2,2,2c1.1,0,2-0.9,2-2C38,39.9,37.1,39,36,39z M36,39 c-1.1,0-2,0.9-2,2c0,1.1,0.9,2,2,2c1.1,0,2-0.9,2-2C38,39.9,37.1,39,36,39z M36,39c-1.1,0-2,0.9-2,2c0,1.1,0.9,2,2,2 c1.1,0,2-0.9,2-2C38,39.9,37.1,39,36,39z M36,39c-1.1,0-2,0.9-2,2c0,1.1,0.9,2,2,2c1.1,0,2-0.9,2-2C38,39.9,37.1,39,36,39z M36,39 c-1.1,0-2,0.9-2,2c0,1.1,0.9,2,2,2c1.1,0,2-0.9,2-2C38,39.9,37.1,39,36,39z M36,39c-1.1,0-2,0.9-2,2c0,1.1,0.9,2,2,2 c1.1,0,2-0.9,2-2C38,39.9,37.1,39,36,39z M36,39c-1.1,0-2,0.9-2,2c0,1.1,0.9,2,2,2c1.1,0,2-0.9,2-2C38,39.9,37.1,39,36,39z M36,39 c-1.1,0-2,0.9-2,2c0,1.1,0.9,2,2,2c1.1,0,2-0.9,2-2C38,39.9,37.1,39,36,39z M36,39c-1.1,0-2,0.9-2,2c0,1.1,0.9,2,2,2 c1.1,0,2-0.9,2-2C38,39.9,37.1,39,36,39z M36,39c-1.1,0-2,0.9-2,2c0,1.1,0.9,2,2,2c1.1,0,2-0.9,2-2C38,39.9,37.1,39,36,39z M36,39 c-1.1,0-2,0.9-2,2c0,1.1,0.9,2,2,2c1.1,0,2-0.9,2-2C38,39.9,37.1,39,36,39z M36,35c-3.3,0-6,2.7-6,6s2.7,6,6,6s6-2.7,6-6 S39.3,35,36,35z M36,45c-2.2,0-4-1.8-4-4s1.8-4,4-4s4,1.8,4,4S38.2,45,36,45z M36,39c-1.1,0-2,0.9-2,2c0,1.1,0.9,2,2,2 c1.1,0,2-0.9,2-2C38,39.9,37.1,39,36,39z M36,39c-1.1,0-2,0.9-2,2c0,1.1,0.9,2,2,2c1.1,0,2-0.9,2-2C38,39.9,37.1,39,36,39z M36,39 c-1.1,0-2,0.9-2,2c0,1.1,0.9,2,2,2c1.1,0,2-0.9,2-2C38,39.9,37.1,39,36,39z M36,39c-1.1,0-2,0.9-2,2c0,1.1,0.9,2,2,2 c1.1,0,2-0.9,2-2C38,39.9,37.1,39,36,39z M36,39c-1.1,0-2,0.9-2,2c0,1.1,0.9,2,2,2c1.1,0,2-0.9,2-2C38,39.9,37.1,39,36,39z M36,39 c-1.1,0-2,0.9-2,2c0,1.1,0.9,2,2,2c1.1,0,2-0.9,2-2C38,39.9,37.1,39,36,39z M36,39c-1.1,0-2,0.9-2,2c0,1.1,0.9,2,2,2 c1.1,0,2-0.9,2-2C38,39.9,37.1,39,36,39z M36,39c-1.1,0-2,0.9-2,2c0,1.1,0.9,2,2,2c1.1,0,2-0.9,2-2C38,39.9,37.1,39,36,39z M36,39 c-1.1,0-2,0.9-2,2c0,1.1,0.9,2,2,2c1.1,0,2-0.9,2-2C38,39.9,37.1,39,36,39z M36,39c-1.1,0-2,0.9-2,2c0,1.1,0.9,2,2,2 c1.1,0,2-0.9,2-2C38,39.9,37.1,39,36,39z M36,39c-1.1,0-2,0.9-2,2c0,1.1,0.9,2,2,2c1.1,0,2-0.9,2-2C38,39.9,37.1,39,36,39z M49.6,40.4c-0.02-0.03-0.09-0.13-0.22-0.29c-0.7-0.91-3.07-3.76-6.38-5.83V13.59L32.41,3H7v44h20.53c2.29,1.63,5.15,3,8.27,3 c6.87,0,12.44-6.63,13.58-8.11c0.13-0.16,0.2-0.26,0.22-0.29L50,41L49.6,40.4z M32,5.41L40.59,14H32V5.41z M35.8,48 c-5.5,0-10.2-5.2-11.7-7c1.4-1.8,6.2-7,11.7-7s10.3,5.2,11.7,7C46.1,42.8,41.3,48,35.8,48z" fill="#409BFF" />
</svg>