<svg xmlns="http://www.w3.org/2000/svg" xmlns:xlink="http://www.w3.org/1999/xlink" viewBox="0 0 50 50" fill="#409BFF">
  <path d="M25 0C22.792969 0 21 1.792969 21 4C21 6.207031 22.792969 8 25 8C27.207031 8 29 6.207031 29 4C29 1.792969 27.207031 0 25 0 Z M 19.375 6.09375C14.804688 8.050781 12 12.457031 12 18C12 29 8.199219 31.761719 5.9375 33.40625C4.933594 34.132813 4 34.808594 4 36C4 40.207031 10.28125 42 25 42C39.71875 42 46 40.207031 46 36C46 34.808594 45.066406 34.132813 44.0625 33.40625C41.800781 31.761719 38 29 38 18C38 12.441406 35.199219 8.046875 30.625 6.09375C29.769531 8.367188 27.566406 10 25 10C22.433594 10 20.230469 8.363281 19.375 6.09375 Z M 19 43.875C19 43.914063 19 43.960938 19 44C19 47.308594 21.691406 50 25 50C28.308594 50 31 47.308594 31 44C31 43.960938 31 43.914063 31 43.875C29.117188 43.953125 27.117188 44 25 44C22.882813 44 20.882813 43.953125 19 43.875Z" fill="#409BFF" />
</svg>