<?xml version="1.0" standalone="no"?><!DOCTYPE svg PUBLIC "-//W3C//DTD SVG 1.1//EN" "http://www.w3.org/Graphics/SVG/1.1/DTD/svg11.dtd"><svg t="1664443893476" class="icon" viewBox="0 0 1024 1024" version="1.1" xmlns="http://www.w3.org/2000/svg" p-id="1636" width="16" height="16" xmlns:xlink="http://www.w3.org/1999/xlink"><path d="M467.6 625.2c0 24.6 20 44.4 44.4 44.4s44.4-20 44.4-44.4V214.6l192.4 176.4c18.2 16.6 46.2 15.4 62.8-2.8 16.6-18.2 15.4-46.2-2.8-62.8L542 80.6c-17-15.6-43.2-15.6-60.2 0L215 325.4c-18.2 16.6-19.4 44.8-2.8 62.8 16.6 18.2 44.8 19.4 62.8 2.8l192.4-176.4v410.6zM156 692c0-24.6-20-44.4-44.4-44.4s-44.4 20-44.4 44.4v173.8c0 52.2 44.8 93.2 96.6 89 79.2-6.4 237-18 348.4-18s269.2 11.6 348.4 18c51.8 4.2 96.6-36.6 96.6-89V692c0-24.6-20-44.4-44.4-44.4S868 667.4 868 692v173.8s-0.2 0-0.2 0.2h-0.2c-79-6.4-240.2-18.2-355.6-18.2s-276.6 11.8-355.6 18.2h-0.2l-0.2-0.2V692z" fill="#ffffff" p-id="1637"></path></svg>